<?xml version="1.0" encoding="UTF-8" standalone="no"?>

<svg
   xmlns:dc="http://purl.org/dc/elements/1.1/"
   xmlns:cc="http://creativecommons.org/ns#"
   xmlns:rdf="http://www.w3.org/1999/02/22-rdf-syntax-ns#"
   xmlns:svg="http://www.w3.org/2000/svg"
   xmlns="http://www.w3.org/2000/svg"
   xmlns:sodipodi="http://sodipodi.sourceforge.net/DTD/sodipodi-0.dtd"
   xmlns:inkscape="http://www.inkscape.org/namespaces/inkscape"
   id="svg2"
   version="1.1"
   inkscape:version="0.48.4 r9939"
   width="1170.8922"
   height="372.8989"
   sodipodi:docname="by-nc-sa-ccLicense.png">
  <metadata
     id="metadata8">
    <rdf:RDF>
      <cc:Work
         rdf:about="">
        <dc:format>image/svg+xml</dc:format>
        <dc:type
           rdf:resource="http://purl.org/dc/dcmitype/StillImage" />
        <dc:title></dc:title>
      </cc:Work>
    </rdf:RDF>
  </metadata>
  <defs
     id="defs6" />
  <sodipodi:namedview
     pagecolor="#ffffff"
     bordercolor="#666666"
     borderopacity="1"
     objecttolerance="10"
     gridtolerance="10"
     guidetolerance="10"
     inkscape:pageopacity="0"
     inkscape:pageshadow="2"
     inkscape:window-width="1364"
     inkscape:window-height="720"
     id="namedview4"
     showgrid="false"
     fit-margin-top="0"
     fit-margin-left="0"
     fit-margin-right="0"
     fit-margin-bottom="0"
     inkscape:zoom="0.34188792"
     inkscape:cx="1039.2289"
     inkscape:cy="362.01895"
     inkscape:window-x="0"
     inkscape:window-y="0"
     inkscape:window-maximized="1"
     inkscape:current-layer="svg2" />
  <path
     inkscape:connector-curvature="0"
     id="path2989"
     d="m 958.85057,371.65749 c -25.948,-3.72594 -51.7674,-13.12968 -71.7767,-26.1419 -46.6958,-30.36668 -77.0187,-74.15981 -86.2341,-124.54135 -2.6769,-14.63479 -3.6345,-39.78051 -2.0707,-54.37702 4.7797,-44.61672 23.1939,-81.987255 56.2011,-114.057325 21.0295,-20.43246 39.2822,-32.15554 65.3324,-41.96081 37.0916,-13.9612502 91.97153,-13.9736302 129.01873,-0.0291 19.5153,7.34553 29.8152,12.97257 46.0293,25.14671 42.9779,32.26939 67.8225,73.934585 74.0576,124.197275 3.0583,24.65329 1.3086,54.47868 -4.4998,76.70325 -8.0935,30.9682 -21.3043,54.34703 -43.8997,77.68859 -29.2448,30.21063 -62.6734,48.65035 -101.2811,55.86822 -14.6805,2.74458 -46.72273,3.53592 -60.87703,1.50346 z m 53.45543,-35.11785 c 31.2187,-5.51373 59.6944,-21.2132 83.5633,-46.07082 18.283,-19.0402 28.745,-36.72281 35.4818,-59.97014 8.1873,-28.25271 7.7674,-64.98451 -1.0507,-91.90146 -5.7051,-17.4148 -15.5497,-34.92019 -27.7272,-49.303625 -23.9777,-28.32146 -53.0979,-45.93706 -87.4527,-52.90253 -6.7819,-1.37504 -13.6437,-1.7799 -30.26993,-1.78598 -18.8737,-0.007 -22.768,0.27605 -31.8805,2.31632 -14.3278,3.20799 -25.7139,7.358 -38.4515,14.01486 -14.636,7.64899 -25.0709,15.70894 -38.8774,30.02929 -21.8974,22.712365 -34.6021,46.107825 -41.0145,75.527605 -3.1859,14.61643 -3.1661,45.43699 0.039,60.29247 3.0044,13.92673 7.3201,25.84796 13.8695,38.31159 21.5668,41.04219 62.7347,72.3791 106.3677,80.96685 16.522,3.25182 40.55693,3.45095 57.40343,0.47557 z m -46.89033,-48.98436 c -9.5845,-1.81505 -23.009,-7.14174 -30.4498,-12.08214 -17.4668,-11.5973 -31.3809,-33.76731 -33.7284,-53.74127 l -0.6667,-5.6722 23.3028,0.26878 23.3027,0.26877 1.2915,6.33432 c 3.1498,15.44774 13.3724,23.9666 31.4853,26.23777 20.40763,2.55888 34.87563,-5.3115 44.26473,-24.07934 5.4859,-10.96559 7.1333,-19.85968 7.1298,-38.49275 0,-24.02719 -4.2516,-38.0379 -14.8082,-48.85061 -7.412,-7.59182 -13.9256,-9.94461 -27.68883,-10.00143 -19.4356,-0.0802 -30.5482,5.53028 -36.9489,18.65468 -1.6624,3.40855 -3.1414,7.77236 -3.2868,9.69736 l -0.2643,3.5 5,0.31 c 2.75,0.17049 5.3287,0.63415 5.7303,1.03034 0.4017,0.39619 -7.077,8.51817 -16.6194,18.04885 -13.7461,13.7293 -17.7532,17.20041 -19.2925,16.71186 -2.3182,-0.73575 -34.3184,-32.90036 -34.3184,-34.49466 0,-0.66608 2.0893,-1.11248 5.25,-1.1217 2.8875,-0.008 5.7247,-0.34592 6.3049,-0.75 0.5802,-0.40408 2.034,-4.78469 3.2305,-9.73469 6.9625,-28.80324 26.399,-49.4402 54.7518,-58.133535 8.3416,-2.55764 10.1756,-2.74631 26.4628,-2.72229 15.81343,0.0233 18.44413,0.28347 27.29553,2.69939 15.7526,4.29953 26.1915,10.224915 38.0444,21.595085 16.0403,15.3869 25.0394,33.59313 28.2048,57.06135 4.938,36.61015 -3.403,66.45107 -25.1354,89.92466 -11.5082,12.43023 -27.7975,21.98973 -44.4528,26.08759 -11.4034,2.80565 -32.49893,3.50856 -43.39143,1.44581 z"
     style="fill:#070707"
     sodipodi:nodetypes="ssssssssssssscsssssssssscssccsssccccsscsscccscssscssssssssss" />
  <path
     inkscape:connector-curvature="0"
     id="path2991"
     d="M 160.4937,371.52337 C 99.4325,363.1748 44.6894,323.3617 17.5003,267.52834 10.4373,253.02434 6.5962,242.26508 2.8351,226.44971 0.073,214.83529 0,213.8074 0,186.52834 0,159.24928 0.073,158.22139 2.8351,146.60697 11.3538,110.78586 26.9046,82.154989 51.9619,56.158495 88.4872,18.264133 131.7511,0.02834319 185.129,0.02834319 c 54.2926,0 97.9979,18.27574981 135.4643,56.64554181 20.3148,20.80463 33.6897,42.812931 42.7558,70.354455 11.8928,36.12814 11.7521,83.32041 -0.3568,119.66819 -9.3394,28.0347 -23.2302,50.26835 -44.3774,71.03092 -30.3947,29.84181 -68.1454,48.343 -109.7768,53.80038 -13.67,1.79196 -35.22,1.78997 -48.3444,-0.004 z m 49.6192,-35.02023 c 55.8643,-9.59393 104.1857,-49.89805 120.7729,-100.73488 12.3585,-37.87676 9.3194,-82.41501 -7.9793,-116.93593 -23.2778,-46.452576 -66.5622,-77.548521 -116.6917,-83.832418 -15.7381,-1.972817 -40.6002,-0.851194 -55.2015,2.490342 -31.33,7.169978 -58.089,23.336012 -79.3704,47.950376 -10.4827,12.124524 -15.8643,20.1956 -23.0879,34.62617 -6.474,12.93328 -10.9296,26.0617 -13.7321,40.46154 -2.3894,12.27772 -2.3791,38.45437 0.02,51.32776 3.6906,19.80175 13.3944,43.21736 24.8209,59.89411 6.4995,9.48581 26.613,29.99557 36.8294,37.55497 17.841,13.20099 41.8839,23.27442 65.0003,27.23358 10.7767,1.84573 37.7796,1.82595 48.6193,-0.0356 z m -91.3568,-93.98891 c -18.3055,-3.97701 -32.8826,-18.78407 -37.8881,-38.48589 -2.2018,-8.66617 -2.1999,-26.34612 0,-35 2.6019,-10.2181 7.0774,-18.3137 14.019,-25.35851 12.1691,-12.35012 28.3232,-17.34449 48.0437,-14.85374 11.7626,1.48564 18.9185,4.1232 26.3023,9.69469 6.0471,4.56306 13.2568,13.14921 13.2568,15.7881 0,1.71785 -19.6995,12.72946 -22.7726,12.72946 -1.0377,0 -3.1817,-1.89989 -4.9083,-4.34945 -4.0602,-5.76024 -10.8849,-9.12479 -18.3193,-9.03137 -10.0854,0.12675 -18.5145,6.72809 -21.5549,16.88082 -1.9942,6.65934 -1.9897,23.43162 0.01,30.08635 3.1509,10.4958 10.4071,17.13403 19.7787,18.09414 9.6548,0.98913 17.8814,-2.74058 23.0633,-10.45618 1.5604,-2.32337 3.4392,-4.22431 4.175,-4.22431 1.605,0 18.4537,8.68778 20.3958,10.51677 1.1455,1.07875 0.8747,2 -1.6782,5.71055 -7.5129,10.91965 -20.959,20.15932 -32.987,22.6676 -7.0489,1.46996 -21.2109,1.26979 -28.9382,-0.40903 z m 108.1488,0.0302 c -13.3513,-2.90499 -26.2883,-12.52528 -32.7101,-24.32421 -9.2844,-17.05851 -9.0688,-47.31878 0.4559,-63.96611 4.3031,-7.52103 13.0389,-16.02015 20.5756,-20.01813 18.6268,-9.88095 48.1449,-7.42624 63.2679,5.26131 4.9601,4.16125 12.0001,12.98645 12.0001,15.04301 0,1.53277 -20.0298,12.488 -22.8322,12.488 -1.1012,0 -2.9824,-1.63238 -4.4677,-3.87684 -6.6174,-9.99943 -21.2401,-12.63991 -31.714,-5.72673 -14.0252,9.25711 -14.3752,44.27493 -0.5637,56.40151 9.7849,8.59123 26.8249,5.97004 34.5936,-5.3214 1.694,-2.4621 3.5675,-4.47654 4.1634,-4.47654 1.4853,0 18.9935,8.88798 20.6864,10.50138 1.1472,1.09331 0.8762,2.01332 -1.6934,5.74809 -7.1877,10.44693 -21.3299,20.15099 -32.9718,22.62458 -6.9623,1.47931 -21.1571,1.30283 -28.79,-0.35792 z"
     style="fill:#070707"
     sodipodi:nodetypes="cssssssssssscccssssssscssscccscsscssssscssscssccssssssssssssssss" />
  <path
     style="fill:#070707"
     d="m 560.4956,371.44876 c -31.6798,-4.17713 -62.0595,-17.16737 -88.5004,-37.84237 -7.9558,-6.22088 -24.3076,-22.38337 -31.4707,-31.10639 -18.0337,-21.96084 -31.2102,-49.23376 -37.0441,-76.67416 -4.8962,-23.02977 -4.6606,-58.09815 0.5471,-81.4391 C 416.3737,89.05108 457.0219,39.06755 508.4203,16.01909 533.7778,4.64806 556.2795,0 585.9702,0 c 31.5574,0 56.1214,5.22675 82.0849,17.46615 20.2704,9.55562 36.0429,21.19296 54.5254,40.23024 23.5443,24.25101 39.4371,54.08816 47.035,88.30361 1.7461,7.86308 2.1934,13.98 2.5961,35.5 0.4398,23.50461 0.2765,27.2477 -1.7012,39 -6.2943,37.40269 -23.1475,69.72127 -50.2295,96.32287 -12.4521,12.23114 -20.1167,18.45612 -33.2849,27.03295 -30.0447,19.56896 -65.0982,29.49583 -102.5003,29.02723 -7.975,-0.0999 -18.7751,-0.74534 -24.0001,-1.43429 z m 42.5765,-33.53964 c 27.9106,-2.78724 55.703,-14.2192 77.6652,-31.94633 11.5339,-9.3097 28.4268,-27.12009 34.6561,-36.53818 15.9976,-24.18707 24.1406,-52.38561 24.0831,-83.39838 -0.07,-37.45482 -12.3906,-70.81304 -36.5374,-98.92158 -22.8063,-26.54814 -52.2939,-43.94943 -86.0692,-50.79131 -13.7584,-2.78703 -48.3017,-2.54559 -61.8743,0.43248 -14.6413,3.21256 -21.6016,5.6513 -35.0002,12.26333 -14.5336,7.17212 -20.7643,11.23889 -31.8759,20.8051 -26.5378,22.84706 -46.4565,56.73248 -52.1316,88.68575 -2.3157,13.03817 -2.9812,32.1647 -1.5475,44.47063 3.5856,30.7751 15.1772,56.93459 35.9051,81.02937 34.5886,40.20693 81.0337,59.07135 132.7266,53.90912 z M 558.1775,306.3486 c -0.375,-0.37506 -0.6819,-20.35183 -0.6819,-44.39282 0,-34.71628 -0.2684,-43.93361 -1.3041,-44.79322 -0.7173,-0.59528 -5.5548,-1.21288 -10.7501,-1.37244 L 535.9955,215.5 535.6991,178 c -0.193,-24.42799 0.075,-38.78151 0.7681,-41.1763 0.5854,-2.02197 2.4408,-4.83447 4.1231,-6.25 L 543.649,128 l 42.1735,0.004 c 40.5363,0.004 42.3019,0.0821 45.4836,2.02189 6.1089,3.72448 6.2423,4.78266 5.9518,47.2207 L 636.996,215.5 l -8.5001,0.25078 c -4.675,0.13793 -9.5079,0.48284 -10.7397,0.76647 l -2.2397,0.51569 -0.2603,44.73353 -0.2603,44.73353 -28.0682,0.26526 c -15.4375,0.1459 -28.3751,-0.0416 -28.7502,-0.41666 z m 16.876,-189.78362 c -5.8574,-2.17145 -8.7627,-4.72205 -11.5517,-10.14158 -2.1845,-4.24487 -2.5062,-6.15708 -2.5062,-14.89671 0,-8.42606 0.3522,-10.68507 2.2062,-14.1509 4.4212,-8.26507 11.1611,-11.63015 23.2939,-11.63015 9.4795,0 14.848,1.77728 19.212,6.36027 8.233,8.64611 9.1446,27.56299 1.8236,37.84431 -3.6744,5.16025 -9.2543,7.37329 -19.5356,7.74809 -6.154,0.22435 -10.2466,-0.13403 -12.9422,-1.13333 z"
     id="path2993"
     inkscape:connector-curvature="0"
     sodipodi:nodetypes="ssssssssssssssssssscssssssssscscscscscssscsscccscsssssssss" />
  <g
     inkscape:groupmode="layer"
     id="layer3"
     inkscape:label="shown"
     style="display:inline"
     transform="translate(-5.546,-0.05054947)"
     sodipodi:insensitive="true" />
  <g
     inkscape:groupmode="layer"
     id="layer1"
     inkscape:label="hidden"
     style="display:none"
     transform="translate(-5.546,-0.05054947)"
     sodipodi:insensitive="true">
    <path
       style="fill:#070707"
       d="m 964.65664,371.56403 c -34.10174,-4.66257 -64.93295,-18.4149 -91.83818,-40.96461 -49.6829,-41.64007 -73.09729,-96.20028 -68.35729,-159.28612 1.81467,-24.15203 5.96559,-40.82199 15.37469,-61.7443 17.501,-38.915675 52.46817,-74.873735 89.61128,-92.150665 26.25034,-12.2102006 49.77994,-17.29153058 80.24751,-17.32981058 32.51555,-0.0409 57.09925,5.25892998 83.46195,17.99281058 20.1929,9.75368 35.8062,21.30784 53.5975,39.66325 24.093,24.85698 39.1689,53.362795 46.6584,88.222865 2.5684,11.9545 2.7083,14.01358 2.7257,40.10155 0.021,30.81474 -1.1525,39.72238 -7.9733,60.5445 -9.3245,28.46529 -23.1785,50.22167 -46.1499,72.47399 -31.1113,30.13744 -65.6116,47.10143 -106.6596,52.44519 -14.0277,1.82617 -37.46556,1.84066 -50.69876,0.0313 z m 48.63276,-34.57679 c 34.0671,-4.73829 64.0482,-20.91762 90.6978,-48.94521 10.2054,-10.73318 19.9627,-24.21177 19.4508,-26.86939 -0.3337,-1.73321 -65.4451,-31.41216 -67.3547,-30.70149 -0.5902,0.21969 -2.0535,2.96117 -3.2517,6.09217 -6.205,16.21467 -20.4418,27.97239 -39.334,32.48466 -4.4945,1.07347 -8.5331,2.31313 -8.9748,2.75479 -0.4416,0.44166 -0.9297,6.64474 -1.0846,13.78462 l -0.2816,12.98161 -10.49996,0 -10.5,0 -0.5,-13.47058 -0.5,-13.47058 -4.5,-0.77566 c -14.51027,-2.5011 -21.39416,-4.37442 -28.84352,-7.84921 -7.90076,-3.68536 -20.26561,-11.68349 -21.7331,-14.05794 -0.65326,-1.05701 23.18598,-25.87603 24.85452,-25.87603 0.44435,0 3.17791,1.78937 6.07458,3.97637 11.095,8.37681 24.85404,12.66497 37.90289,11.81288 13.07039,-0.8535 19.55529,-6.12313 20.40649,-16.58227 0.6171,-7.582 -1.7458,-11.46186 -8.9382,-14.67629 -2.873,-1.28405 -19.17366,-8.49387 -36.22366,-16.02183 -17.05,-7.52797 -36.85,-16.30739 -44,-19.50984 -7.15,-3.20244 -27.74716,-12.43175 -45.77147,-20.50957 -18.02431,-8.07782 -33.34983,-14.46501 -34.0567,-14.19376 -3.13566,1.20326 -7.51538,23.18034 -8.32653,41.78178 -1.4869,34.0977 6.95693,64.29345 25.42311,90.91492 24.85213,35.82768 61.4568,59.65139 102.23159,66.53619 9.42702,1.59175 37.34796,1.82016 47.63276,0.38966 z M 1140.3365,219.0594 c 2.3309,-10.46949 3.612,-28.23144 2.9412,-40.77878 -2.318,-43.36097 -19.7146,-78.831162 -52.954,-107.968725 -11.6423,-10.20566 -17.5696,-14.09804 -33.1671,-21.78034 -21.85,-10.76193 -39.9395,-14.7833 -66.49996,-14.7833 -19.12537,0 -30.99494,1.74243 -47.08029,6.91131 -25.95459,8.34027 -49.47846,24.26165 -67.99284,46.01878 -10.70339,12.578063 -12.51007,15.207445 -11.28856,16.428955 1.11048,1.11049 41.92072,19.72413 57.36169,26.16281 5.225,2.17876 10.03431,4.18714 10.68736,4.46308 0.66931,0.28281 2.14208,-1.38877 3.37557,-3.83124 7.2528,-14.3615 21.76216,-24.79749 37.93707,-27.28658 8.55054,-1.3158 7.91311,-0.1254 8.22216,-15.354925 l 0.27784,-13.69145 10.5,0 10.49996,0 0.2783,13.15108 c 0.1885,8.90444 0.6729,13.446085 1.5,14.064685 0.672,0.50249 4.4439,1.43867 8.3821,2.08039 8.0392,1.30995 14.4514,3.29804 21.8733,6.78174 6.4012,3.00458 14.4663,8.32711 14.4663,9.54696 0,1.32005 -22.173,23.87515 -23.4707,23.87515 -0.5869,0 -4.6151,-1.78242 -8.9516,-3.96094 -9.6736,-4.85978 -16.925,-6.45578 -26.07766,-5.73957 -11.84966,0.92725 -18.19613,5.01613 -19.18085,12.35775 -0.39348,2.93359 -0.0754,4.25247 1.33197,5.52333 1.71326,1.54705 16.46932,8.54238 34.34884,16.28359 10.3872,4.49727 108.1282,48.11531 123,54.89014 3.025,1.37803 6.1654,2.42023 6.9787,2.31601 0.9242,-0.11843 1.9373,-2.2488 2.7012,-5.67991 z"
       id="path2987"
       inkscape:connector-curvature="0"
       sodipodi:nodetypes="csssssssscsssccssccsscscccccssssssscssssssssssssssssssssscccscssssssssssss" />
  </g>
</svg>
